:SAMPLES-PER-SECOND 30
:FULLY-SPECIFIED
:DEGREES
422
root  11.956 37.3922 1.10231 -38.5659 -70.9496 36.049
RightUpLeg  -22.1323 13.602 -10.6734
RightLeg  57.425 -5.2686 -9.22076
RightFoot  -10.3598 -0.185828 13.7077
RightToes  -5.28226e-011 1.30204e-014 -6.03759e-014
Spine  13.2574 4.95012 5.28445
Spine1  8.04851 9.77095 -17.908
HEad  -33.9164 -25.3719 3.57031
LeftShoulder1  1.6172 -4.89034 -12.1751
LeftArm  25.2678 -3.63068 -68.443
LeftForeArm  43.9686 -77.2475 -56.203
LeftHand  1.92115 14.1091 25.17
RightShoulder  1.72312 4.6388 14.3182
RightArm  37.109 13.0486 71.3083
RightForeArm  -6.22071 61.7839 22.2976
RightHand  -0.64977 0.15494 -13.6149
LeftUpLeg  -9.3243 2.57447 -16.2724
LeftLeg  32.2178 3.8752 3.02256
LeftFoot  -19.6367 -0.129919 -3.3981
LeftToes  -2.42178e-010 -1.66495e-011 -2.88221e-011
423
root  11.7664 37.1823 1.22634 -38.3524 -68.5402 35.0074
RightUpLeg  -23.8659 11.2564 -12.2567
RightLeg  62.4276 -4.05832 -8.93693
RightFoot  -9.28757 -0.301328 13.1741
RightToes  -5.28226e-011 1.30204e-014 -6.03759e-014
Spine  13.0589 4.3092 3.66497
Spine1  9.23644 8.35392 -15.4931
HEad  -33.5373 -24.9508 1.74381
LeftShoulder1  1.49898 -4.53805 -11.4804
LeftArm  23.6131 -7.53683 -70.863
LeftForeArm  60.9241 -78.5504 -62.0616
LeftHand  1.48225 14.3334 19.3139
RightShoulder  1.85944 4.97701 15.1623
RightArm  34.8264 16.0211 72.1278
RightForeArm  -9.6481 63.3212 24.3684
RightHand  -1.04546 1.30441 -18.3119
LeftUpLeg  -8.36785 3.36847 -17.3434
LeftLeg  33.2909 2.2236 1.98275
LeftFoot  -20.3279 -0.0957904 -2.76089
LeftToes  -2.42178e-010 -1.66495e-011 -2.88221e-011
424
root  11.4774 37.2785 1.36548 -35.1102 -66.4998 32.1044
RightUpLeg  -25.834 8.62464 -13.3658
RightLeg  64.9431 -3.81115 -9.45526
RightFoot  -10.2691 -0.189819 12.7459
RightToes  -5.28226e-011 1.30204e-014 -6.03759e-014
Spine  11.9899 2.70311 2.73827
Spine1  8.75669 5.94687 -13.5611
HEad  -31.7147 -23.0251 -0.588241
LeftShoulder1  1.56092 -4.94568 -11.2945
LeftArm  24.143 -11.9162 -72.6516
LeftForeArm  62.8702 -78.3355 -57.2977
LeftHand  1.21577 15.5325 14.2682
RightShoulder  1.92104 5.05955 15.7209
RightArm  30.713 15.6535 74.7198
RightForeArm  -17.4747 64.3489 26.3829
RightHand  -1.03558 0.185523 -21.7721
LeftUpLeg  -7.58447 3.24194 -17.5273
LeftLeg  32.3092 0.90989 1.02016
LeftFoot  -19.5476 -0.0130002 -1.8027
LeftToes  -2.42178e-010 -1.66495e-011 -2.88221e-011
425
root  11.1262 37.5849 1.51705 -31.7805 -66.4833 29.2047
RightUpLeg  -27.491 7.96075 -13.065
RightLeg  64.7905 -4.42619 -10.7521
RightFoot  -10.9402 -0.117356 12.3417
RightToes  -5.28226e-011 1.30204e-014 -6.03759e-014
Spine  11.4181 1.36714 2.87131
Spine1  7.07154 3.93303 -11.7525
HEad  -29.6647 -20.4132 -3.2326
LeftShoulder1  1.7096 -5.90692 -10.9578
LeftArm  25.8033 -15.8595 -75.1153
LeftForeArm  51.9117 -76.288 -45.1385
LeftHand  0.788756 16.8247 8.58742
RightShoulder  1.88781 4.81619 16.0009
RightArm  25.4969 12.3439 76.5535
RightForeArm  -26.5925 66.1067 29.6349
RightHand  -1.09711 -1.3163 -29.8156
LeftUpLeg  -6.60494 3.37084 -16.489
LeftLeg  30.2904 0.702358 0.830433
LeftFoot  -18.303 0.0476518 -1.02799
LeftToes  -2.42178e-010 -1.66495e-011 -2.88221e-011
426
root  10.715 37.9937 1.6367 -28.6237 -67.8405 26.1598
RightUpLeg  -28.2377 9.15345 -11.8598
RightLeg  62.0427 -5.52812 -11.6775
RightFoot  -10.565 -0.149661 11.4267
RightToes  -5.28226e-011 1.30204e-014 -6.03759e-014
Spine  11.4118 0.270342 2.12968
Spine1  4.99731 1.76027 -8.29438
HEad  -28.4194 -16.5238 -5.78401
LeftShoulder1  1.79227 -6.63546 -10.4084
LeftArm  27.6356 -18.522 -78.4343
LeftForeArm  37.0416 -72.6324 -34.32
LeftHand  0.182025 17.6509 2.54806
RightShoulder  1.87402 4.74956 16.0196
RightArm  21.4254 8.81813 76.1878
RightForeArm  -32.8182 67.8413 32.975
RightHand  -1.81812 -0.538414 -41.8576
LeftUpLeg  -5.19068 3.41599 -14.7152
LeftLeg  27.8364 1.63226 1.28711
LeftFoot  -17.1089 0.0421723 -1.21534
LeftToes  -2.42178e-010 -1.66495e-011 -2.88221e-011
427
root  10.2219 38.4292 1.69818 -25.0274 -69.1901 22.7993
RightUpLeg  -28.1175 10.7541 -10.7293
RightLeg  57.1604 -6.8291 -11.662
RightFoot  -10.7693 -0.127003 10.5745
RightToes  -5.28226e-011 1.30204e-014 -6.03759e-014
Spine  10.9181 -1.26044 -0.586581
Spine1  3.52968 -1.29806 -2.67702
HEad  -28.182 -10.8718 -7.70837
LeftShoulder1  1.76833 -6.75571 -9.91847
LeftArm  29.611 -20.1084 -81.5422
LeftForeArm  22.0076 -67.8777 -26.7924
LeftHand  -0.388183 17.9455 -2.58965
RightShoulder  1.934 5.1021 15.764
RightArm  19.6155 6.80491 74.1052
RightForeArm  -35.2509 68.54 34.4622
RightHand  -2.4928 0.211654 -49.2282
LeftUpLeg  -3.71398 2.47891 -12.8965
LeftLeg  25.2273 3.15385 1.88009
LeftFoot  -15.6331 0.0140592 -2.14197
LeftToes  -2.42178e-010 -1.66495e-011 -2.88221e-011
428
root  9.64761 38.8163 1.69749 -21.4825 -70.2954 19.7119
RightUpLeg  -27.4117 12.1306 -9.98114
RightLeg  50.7476 -8.03095 -10.7385
RightFoot  -11.3361 -0.0777708 9.93737
RightToes  -5.28226e-011 1.30204e-014 -6.03759e-014
Spine  9.60034 -3.25729 -4.52055
Spine1  3.31543 -4.8769 3.6712
HEad  -28.4742 -4.19889 -8.80875
LeftShoulder1  1.73477 -6.77976 -9.51203
LeftArm  31.9461 -21.4218 -83.657
LeftForeArm  7.47961 -62.0108 -21.1556
LeftHand  -0.659909 16.4275 -5.78756
RightShoulder  1.98981 5.47476 15.4177
RightArm  19.0507 5.79126 71.4391
RightForeArm  -33.3688 68.5692 34.4418
RightHand  -2.22609 -0.555856 -50.3679
LeftUpLeg  -2.45628 1.35681 -11.2715
LeftLeg  22.9164 4.20902 2.30996
LeftFoot  -14.099 0.00882449 -3.14202
LeftToes  -2.42178e-010 -1.66495e-011 -2.88221e-011
429
root  9.00393 39.0624 1.63267 -19.3338 -71.6099 17.7496
RightUpLeg  -26.0204 13.3535 -9.43193
RightLeg  43.6296 -8.45825 -8.84147
RightFoot  -9.73633 -0.185933 8.83172
RightToes  -5.28226e-011 1.30204e-014 -6.03759e-014
Spine  8.13394 -5.22674 -8.65168
Spine1  4.22551 -8.20195 8.95302
HEad  -28.7145 2.36267 -9.11889
LeftShoulder1  1.77399 -7.32435 -8.97294
LeftArm  34.4446 -22.7905 -84.9334
LeftForeArm  -5.67397 -55.7209 -17.1486
LeftHand  -0.490989 11.8086 -7.52013
RightShoulder  1.97734 5.44154 15.3572
RightArm  17.9454 4.57644 68.9728
RightForeArm  -25.3946 68.7953 34.4481
RightHand  -1.48553 -1.97111 -48.0506
LeftUpLeg  -1.13141 1.21998 -9.80761
LeftLeg  21.4112 4.42008 2.55794
LeftFoot  -13.4873 0.00112163 -4.21807
LeftToes  -2.42178e-010 -1.66495e-011 -2.88221e-011
430
root  8.29596 39.0994 1.50741 -19.1835 -73.2045 17.265
RightUpLeg  -23.8838 13.8596 -8.84742
RightLeg  37.228 -7.31045 -6.18511
RightFoot  -5.77807 -0.418689 7.74925
RightToes  -5.28226e-011 1.30204e-014 -6.03759e-014
Spine  7.00406 -6.97259 -12.4496
Spine1  5.6785 -10.9804 12.2539
HEad  -28.4342 8.36092 -8.6004
LeftShoulder1  1.83482 -8.17451 -8.21797
LeftArm  36.9847 -23.8486 -85.9788
LeftForeArm  -16.1569 -50.7654 -14.8971
LeftHand  -0.041116 5.43497 -8.67956
RightShoulder  1.9298 5.09913 15.7186
RightArm  15.3615 2.6634 67.3122
RightForeArm  -11.3187 69.7963 35.438
RightHand  -1.16446 -2.61084 -46.7132
LeftUpLeg  0.55132 1.61196 -8.63598
LeftLeg  20.8309 4.57426 2.81726
LeftFoot  -14.2967 -0.0586691 -5.54454
LeftToes  -2.42178e-010 -1.66495e-011 -2.88221e-011
